#!OML:ASF F:\VICON\USERDATA\INSTALL\rory3\rory3.ASF
:FULLY-SPECIFIED
:DEGREES
82
root 10.5421 18.1238 -6.47876 -5.88864 -51.8314 9.18815
lowerback 10.5702 2.45832 -4.68033
upperback 0.641369 2.60623 -1.32197
thorax -5.40791 1.36738 0.853485
lowerneck -20.3548 -3.65269 -11.1167
upperneck 26.8211 -3.90771 7.66199
head 12.695 -1.92287 4.17401
rclavicle -4.43787e-014 1.51076e-014
rhumerus -37.9714 -13.6888 -78.4243
rradius 33.029
rwrist 8.51114
rhand -12.0381 9.48509
rfingers 7.12502
rthumb 14.0203 -20.0221
lclavicle -4.43787e-014 1.51076e-014
lhumerus -40.6993 12.5806 78.1182
lradius 32.4288
lwrist -8.21458
lhand -15.4624 26.1114
lfingers 7.12502
lthumb 10.7187 55.818
rfemur -3.80828 0.473407 14.6474
rtibia 56.4214
rfoot 17.9684 7.67234
rtoes 13.8499
lfemur -3.8396 1.14917 -29.414
ltibia -2.78299e-015
lfoot 5.02634 -10.7604
ltoes 14.8231
83
root 10.4601 18.1273 -6.39737 -6.45985 -51.8467 9.77721
lowerback 10.6182 2.46013 -5.1274
upperback 0.670454 2.55033 -1.3379
thorax -5.42083 1.34933 1.09409
lowerneck -20.4174 -3.62769 -11.0811
upperneck 26.8874 -3.83633 7.5208
head 12.7226 -1.90644 4.12632
rclavicle 4.10987e-014 2.28602e-014
rhumerus -37.9343 -13.7439 -78.283
rradius 33.0084
rwrist 8.44102
rhand -12.3103 9.34432
rfingers 7.12502
rthumb 13.758 -20.1808
lclavicle 4.10987e-014 2.28602e-014
lhumerus -40.3358 12.262 78.3172
lradius 32.4598
lwrist -7.99025
lhand -17.0335 25.9364
lfingers 7.12502
lthumb 9.20305 55.7156
rfemur -5.22448 0.408496 14.1119
rtibia 58.788
rfoot 18.1607 7.53968
rtoes 13.0532
lfemur -3.2915 1.19142 -29.8693
ltibia 8.74653e-015
lfoot 4.84339 -10.7902
ltoes 15.3402
84
root 10.3808 18.1277 -6.31583 -6.91745 -51.6242 10.2393
lowerback 10.6789 2.37178 -5.47794
upperback 0.706173 2.38674 -1.3362
thorax -5.42237 1.27611 1.31621
lowerneck -20.4152 -3.62985 -11.1835
upperneck 26.7988 -3.7977 7.5203
head 12.6847 -1.89798 4.14737
rclavicle 5.63058e-014 -3.57812e-015
rhumerus -37.8672 -13.8434 -78.0963
rradius 32.9708
rwrist 8.39727
rhand -12.15 9.48093
rfingers 7.12502
rthumb 13.9125 -20.0337
lclavicle 5.63058e-014 -3.57812e-015
lhumerus -40.0275 12.0337 78.4769
lradius 32.5053
lwrist -8.16782
lhand -16.7705 25.7384
lfingers 7.12502
lthumb 9.45677 55.5062
rfemur -6.58745 0.0264814 13.6229
rtibia 61.0413
rfoot 17.4562 6.96684
rtoes 13.1602
lfemur -2.77753 0.992663 -30.2862
ltibia 6.16232e-015
lfoot 4.71518 -10.7961
ltoes 15.4074
85
root 10.3031 18.1296 -6.22728 -7.04722 -51.2777 10.2564
lowerback 10.7664 2.19834 -5.42893
upperback 0.73605 2.15933 -1.30205
thorax -5.42411 1.16312 1.35856
lowerneck -20.2644 -3.59889 -11.2479
upperneck 26.5614 -3.7464 7.55693
head 12.5547 -1.87449 4.17363
rclavicle -1.06126e-013 1.5704e-014
rhumerus -37.8561 -13.93 -77.94
rradius 32.9509
rwrist 8.32138
rhand -11.977 9.76295
rfingers 7.12502
rthumb 14.0791 -19.7401
lclavicle -1.06126e-013 1.5704e-014
lhumerus -39.8045 11.6873 78.6693
lradius 32.6663
lwrist -8.14809
lhand -15.4289 25.5618
lfingers 7.12502
lthumb 10.7511 55.2667
rfemur -7.8348 -0.503178 13.4263
rtibia 63.1514
rfoot 15.9828 5.98648
rtoes 13.9778
lfemur -2.22624 0.647091 -30.4444
ltibia 6.95746e-015
lfoot 4.51802 -10.7422
ltoes 15.6082
86
root 10.2222 18.1283 -6.1395 -7.3002 -51.0035 10.3686
lowerback 10.7862 2.0408 -5.43497
upperback 0.846612 1.95138 -1.30039
thorax -5.30491 1.05642 1.39872
lowerneck -20.2479 -3.56864 -11.2388
upperneck 26.3855 -3.69649 7.55572
head 12.4748 -1.8476 4.17431
rclavicle -3.95333e-014 1.05356e-014
rhumerus -37.767 -14.0291 -77.8564
rradius 32.9551
rwrist 8.3099
rhand -12.0216 9.9043
rfingers 7.12502
rthumb 14.0362 -19.6018
lclavicle -3.95333e-014 1.05356e-014
lhumerus -39.4929 11.4253 78.8069
lradius 32.8561
lwrist -8.21651
lhand -14.7562 25.2542
lfingers 7.12502
lthumb 11.3999 54.9243
rfemur -9.02021 -0.909721 13.2316
rtibia 65.1186
rfoot 13.9611 5.23578
rtoes 13.9059
lfemur -1.58834 0.390811 -30.6548
ltibia 1.0635e-014
lfoot 4.26803 -10.6595
ltoes 15.9165
87
root 10.1415 18.1249 -6.05638 -7.47863 -50.7808 10.4375
lowerback 10.8482 1.90871 -5.52921
upperback 0.900921 1.7658 -1.23316
thorax -5.27494 0.966378 1.55062
lowerneck -20.3707 -3.55623 -11.1354
upperneck 26.3986 -3.62517 7.31473
head 12.4901 -1.83451 4.07436
rclavicle 2.67365e-014 1.94809e-014
rhumerus -37.7376 -13.9704 -77.7282
rradius 33.0366
rwrist 8.2359
rhand -11.9733 9.89886
rfingers 7.12502
rthumb 14.0828 -19.604
lclavicle 2.67365e-014 1.94809e-014
lhumerus -39.2087 11.1975 78.9943
lradius 32.9827
lwrist -8.30651
lhand -15.2282 24.8538
lfingers 7.12502
lthumb 10.9447 54.5485
rfemur -10.2905 -1.24146 13.1336
rtibia 66.9303
rfoot 11.8215 4.83758
rtoes 12.9038
lfemur -1.00527 0.177186 -30.8224
ltibia 1.81391e-014
lfoot 4.02573 -10.4877
ltoes 16.6042
